<?xml version="1.0" standalone="no"?>
<!DOCTYPE svg PUBLIC "-//W3C//DTD SVG 20010904//EN"
 "http://www.w3.org/TR/2001/REC-SVG-20010904/DTD/svg10.dtd">
<svg version="1.0" xmlns="http://www.w3.org/2000/svg"
 width="500.000000pt" height="500.000000pt" viewBox="0 0 500.000000 500.000000"
 preserveAspectRatio="xMidYMid meet">
<metadata>
Created by potrace 1.14, written by Peter Selinger 2001-2017
</metadata>
<g transform="translate(0.000000,500.000000) scale(0.100000,-0.100000)"
fill="#000000" stroke="none">
<path d="M3525 4165 c-23 -22 -25 -33 -26 -117 -4 -277 -36 -457 -106 -596
-38 -77 -79 -125 -147 -171 -96 -66 -261 -120 -411 -136 -33 -3 -76 -9 -95
-12 -19 -4 -228 -8 -465 -9 -236 -1 -457 -5 -490 -8 -540 -53 -923 -215 -1230
-521 -197 -196 -320 -401 -410 -685 -48 -154 -93 -367 -110 -525 -4 -33 -9
-71 -11 -85 -12 -75 -15 -273 -4 -307 16 -50 68 -117 105 -137 84 -45 101 -46
693 -46 615 0 604 -1 654 59 29 34 34 59 43 216 3 55 7 114 10 130 25 138 76
248 136 296 38 30 136 74 187 83 15 3 54 10 87 17 39 7 218 12 505 14 245 2
463 6 485 8 22 3 67 8 100 11 133 15 321 52 460 91 513 144 931 454 1187 880
92 152 161 313 214 499 47 164 70 280 89 451 3 33 8 74 10 90 9 67 16 369 10
407 -5 28 -20 55 -47 84 l-41 44 -679 0 -679 0 -24 -25z"/>
<path d="M1995 4083 c-89 -29 -145 -102 -145 -188 0 -109 65 -164 240 -205
117 -27 163 -65 145 -119 -14 -46 -131 -69 -192 -38 -32 17 -58 50 -64 82 -4
17 -13 20 -69 20 -88 1 -88 0 -80 -43 23 -124 137 -200 295 -196 171 5 282
101 268 233 -12 115 -58 147 -305 211 -26 7 -56 22 -67 34 -18 19 -20 27 -10
54 13 37 48 51 118 47 47 -3 90 -35 95 -71 3 -17 12 -19 74 -19 70 0 72 0 72
24 0 43 -38 106 -84 139 -72 52 -197 67 -291 35z"/>
<path d="M2822 4081 c-112 -45 -159 -126 -137 -234 8 -40 49 -88 94 -111 14
-8 76 -28 136 -46 62 -17 120 -40 133 -52 56 -53 1 -120 -99 -120 -74 1 -125
33 -134 86 l-6 31 -75 0 c-44 0 -75 -4 -78 -11 -8 -20 31 -115 60 -146 52 -55
130 -81 239 -81 163 1 269 84 268 213 -1 118 -64 174 -243 214 -132 30 -169
60 -136 110 32 49 139 57 183 14 13 -14 26 -33 27 -44 3 -17 12 -19 74 -20 80
0 80 1 62 68 -13 44 -57 91 -113 120 -57 29 -194 34 -255 9z"/>
<path d="M109 4078 c0 -17 0 -639 1 -655 0 -9 22 -13 74 -13 l73 0 1 131 c1
72 4 134 7 137 3 3 51 6 107 6 85 1 101 -2 107 -16 3 -9 5 -71 4 -138 l-1
-121 81 3 81 3 1 320 c0 176 -1 328 -3 338 -4 14 -16 17 -82 17 l-77 0 -1
-122 c0 -68 -1 -129 -1 -135 -1 -10 -30 -13 -111 -13 l-110 0 -1 28 c0 15 -1
75 -1 135 l1 107 -75 0 c-52 0 -74 -4 -75 -12z"/>
<path d="M1180 4080 c0 -6 -9 -29 -19 -53 -11 -23 -56 -134 -102 -247 -45
-113 -97 -241 -115 -285 l-32 -80 70 -3 c39 -2 76 -1 82 1 6 3 17 22 24 43 7
22 18 51 24 66 l10 26 128 0 128 0 25 -66 25 -67 81 -3 c81 -3 81 -3 72 20 -5
13 -55 136 -110 273 -56 138 -114 280 -129 317 l-27 68 -67 0 c-39 0 -68 -4
-68 -10z m115 -295 c19 -53 35 -100 35 -105 0 -6 -36 -10 -80 -10 -44 0 -80 3
-80 7 0 4 17 58 38 119 24 72 40 107 45 98 4 -7 23 -56 42 -109z"/>
</g>
</svg>
